<?xml version="1.0" encoding="UTF-8"?>
<svg xmlns="http://www.w3.org/2000/svg" width="53" height="54" viewBox="0 0 53 54" fill="none">
  <path d="M34.8433 38.659C40.4624 38.659 45.0336 34.0877 45.0336 28.4687V11.788C45.0336 6.16891 40.4623 1.59766 34.8433 1.59766H18.1611C12.542 1.59766 7.9707 6.16901 7.9707 11.788V28.4687C7.9707 34.0878 12.5421 38.659 18.1611 38.659H21.8574V45.4548H16.1305C13.1073 45.4548 10.6475 47.9145 10.6475 50.9374C10.6475 51.3699 10.9978 51.7206 11.4307 51.7206H41.5736C42.0065 51.7206 42.3568 51.3699 42.3568 50.9374C42.3568 47.9145 39.8972 45.4548 36.8746 45.4548H31.1477V38.659H34.8433ZM36.8746 47.0211C38.7661 47.0211 40.3484 48.3687 40.7118 50.1542H12.2927C12.6568 48.3688 14.2391 47.0211 16.1305 47.0211H36.8746ZM23.4238 45.4548V38.659H29.5813V45.4548H23.4238ZM18.1611 37.0927C13.4055 37.0927 9.537 33.224 9.537 28.4687V11.788C9.537 7.03285 13.4055 3.16395 18.1611 3.16395H34.8433C39.5989 3.16395 43.4674 7.03274 43.4674 11.788V28.4687C43.4674 33.2239 39.5989 37.0927 34.8433 37.0927C25.0985 37.0927 28.9369 37.0927 18.1611 37.0927ZM39.1721 20.1283C39.1721 13.1421 33.4888 7.4584 26.5022 7.4584C19.5156 7.4584 13.8323 13.1421 13.8323 20.1283C13.8323 27.1149 19.5156 32.7986 26.5022 32.7986C33.4888 32.7986 39.1721 27.115 39.1721 20.1283ZM26.5022 31.2323C20.3798 31.2323 15.3986 26.251 15.3986 20.1283C15.3986 14.0056 20.3798 9.02469 26.5022 9.02469C32.6245 9.02469 37.6058 14.0056 37.6058 20.1283C37.6058 26.251 32.6245 31.2323 26.5022 31.2323ZM26.5022 12.9433C22.5404 12.9433 19.3167 16.1665 19.3167 20.1283C19.3167 24.0905 22.5404 27.3137 26.5022 27.3137C30.4639 27.3137 33.6876 24.0905 33.6876 20.1283C33.6876 16.1665 30.4639 12.9433 26.5022 12.9433ZM26.5022 25.7474C23.4039 25.7474 20.883 23.2266 20.883 20.1283C20.883 17.03 23.4039 14.5096 26.5022 14.5096C29.6004 14.5096 32.1213 17.0301 32.1213 20.1283C32.1213 23.2265 29.6004 25.7474 26.5022 25.7474ZM30.5549 20.1283C30.5549 20.5608 30.2046 20.9115 29.7717 20.9115C29.3388 20.9115 28.9885 20.5608 28.9885 20.1283C28.9885 18.7573 27.8734 17.6423 26.5021 17.6423C26.0692 17.6423 25.7189 17.2916 25.7189 16.8591C25.7189 16.4266 26.0692 16.0759 26.5021 16.0759C28.737 16.076 30.5549 17.8939 30.5549 20.1283ZM37.6058 8.2416V7.4848C37.6058 7.05231 37.9561 6.7016 38.389 6.7016C38.8219 6.7016 39.1722 7.05231 39.1722 7.4848V8.2416C39.1722 8.67409 38.8219 9.0248 38.389 9.0248C37.9561 9.02469 37.6058 8.67409 37.6058 8.2416Z" fill="#198D80"></path>
</svg>
