<svg xmlns="http://www.w3.org/2000/svg" version="1.1" xmlns:xlink="http://www.w3.org/1999/xlink" xmlns:svgjs="http://svgjs.dev/svgjs" width="1440" height="560" preserveAspectRatio="none" viewBox="0 0 1440 560"><g mask="url(&quot;#SvgjsMask1107&quot;)" fill="none"><rect width="1440" height="560" x="0" y="0" fill="rgba(29, 31, 33, 1)"></rect><path d="M1440 0L897.57 0L1440 211.56z" fill="rgba(255, 255, 255, .1)"></path><path d="M897.57 0L1440 211.56L1440 277.36L632.49 0z" fill="rgba(255, 255, 255, .075)"></path><path d="M632.49 0L1440 277.36L1440 287.25L457.13 0z" fill="rgba(255, 255, 255, .05)"></path><path d="M457.13 0L1440 287.25L1440 355.85L225.72 0z" fill="rgba(255, 255, 255, .025)"></path><path d="M0 560L132.66 560L0 552.58z" fill="rgba(0, 0, 0, .1)"></path><path d="M0 552.58L132.66 560L645.11 560L0 326.30000000000007z" fill="rgba(0, 0, 0, .075)"></path><path d="M0 326.3L645.11 560L1074.6399999999999 560L0 206.31z" fill="rgba(0, 0, 0, .05)"></path><path d="M0 206.31L1074.6399999999999 560L1126.6699999999998 560L0 97.47z" fill="rgba(0, 0, 0, .025)"></path></g><defs><mask id="SvgjsMask1107"><rect width="1440" height="560" fill="#ffffff"></rect></mask></defs></svg>