<svg xmlns="http://www.w3.org/2000/svg" version="1.1" xmlns:xlink="http://www.w3.org/1999/xlink" xmlns:svgjs="http://svgjs.dev/svgjs" width="1440" height="560" preserveAspectRatio="none" viewBox="0 0 1440 560"><g mask="url(&quot;#SvgjsMask1459&quot;)" fill="none"><rect width="1440" height="560" x="0" y="0" fill="url(&quot;#SvgjsLinearGradient1460&quot;)"></rect><path d="M1440 0L1336.77 0L1440 54.56z" fill="rgba(255, 255, 255, .1)"></path><path d="M1336.77 0L1440 54.56L1440 296.82L997.62 0z" fill="rgba(255, 255, 255, .075)"></path><path d="M997.62 0L1440 296.82L1440 424.69L795.02 0z" fill="rgba(255, 255, 255, .05)"></path><path d="M795.02 0L1440 424.69L1440 451.62L415.72999999999996 0z" fill="rgba(255, 255, 255, .025)"></path><path d="M0 560L259.36 560L0 417.09000000000003z" fill="rgba(0, 0, 0, .1)"></path><path d="M0 417.09000000000003L259.36 560L274.59000000000003 560L0 393.84000000000003z" fill="rgba(0, 0, 0, .075)"></path><path d="M0 393.84000000000003L274.59000000000003 560L929.3100000000001 560L0 383.48z" fill="rgba(0, 0, 0, .05)"></path><path d="M0 383.48L929.3100000000001 560L1216.41 560L0 265.73z" fill="rgba(0, 0, 0, .025)"></path></g><defs><mask id="SvgjsMask1459"><rect width="1440" height="560" fill="#ffffff"></rect></mask><linearGradient x1="15.28%" y1="-39.29%" x2="84.72%" y2="139.29%" gradientUnits="userSpaceOnUse" id="SvgjsLinearGradient1460"><stop stop-color="#0e2a47" offset="0"></stop><stop stop-color="rgba(0, 15, 35, 1)" offset="1"></stop></linearGradient></defs></svg>